<svg width="96" height="24" viewBox="0 0 96 24" fill="none" xmlns="http://www.w3.org/2000/svg">
<rect width="95.6841" height="24" rx="12" fill="#2F0B30"/>
<g clip-path="url(#clip0_4503_32665)">
<mask id="mask0_4503_32665" style="mask-type:luminance" maskUnits="userSpaceOnUse" x="29" y="5" width="14" height="14">
<path d="M43 5H29V19H43V5Z" fill="white"/>
</mask>
<g mask="url(#mask0_4503_32665)">
<path d="M42.7912 13.6935C41.8562 17.4435 38.0576 19.7257 34.3067 18.7906C30.5574 17.8556 28.2749 14.0573 29.2104 10.3074C30.145 6.55697 33.9436 4.27454 37.6933 5.20947C41.444 6.14441 43.7263 9.94323 42.7912 13.6935Z" fill="#2FBB90"/>
<path d="M39.9726 11.975C39.9726 11.474 38.6094 11.056 36.7978 10.9596L36.7976 10.1613H39.0596V8.5H32.8744V10.1613H35.1362V10.9635C33.3576 11.0665 32.0271 11.4802 32.0271 11.975C32.0271 12.4699 33.3576 12.8836 35.1362 12.9865V15.853H36.7976V12.9904C38.6094 12.8942 39.9726 12.476 39.9726 11.975ZM35.9998 12.4686C34.0553 12.4686 32.4789 12.1676 32.4789 11.7962C32.4789 11.4816 33.6093 11.2176 35.1362 11.1441V11.3334L35.1363 12.1092C35.4116 12.1247 35.701 12.1328 35.9998 12.1328C36.275 12.1328 36.5423 12.1258 36.7978 12.113V11.1412C38.3578 11.2102 39.5208 11.477 39.5208 11.7962C39.5208 12.1676 37.9443 12.4686 35.9998 12.4686Z" fill="white"/>
</g>
</g>
<ellipse cx="25.4431" cy="11.9431" rx="6.94307" ry="6.94307" fill="#007BED"/>
<path fill-rule="evenodd" clip-rule="evenodd" d="M22.4102 12.2254L25.5246 14.0665V7.05762L22.4102 12.2254Z" fill="white"/>
<path fill-rule="evenodd" clip-rule="evenodd" d="M25.5249 7.05762V14.0665L28.6393 12.2254L25.5249 7.05762Z" fill="#C1CCF5"/>
<path fill-rule="evenodd" clip-rule="evenodd" d="M25.5248 10.8105L22.4102 12.226L25.5246 14.0671L28.6392 12.2262L25.5248 10.8105Z" fill="#8299EC"/>
<path fill-rule="evenodd" clip-rule="evenodd" d="M25.5248 10.8105L22.4102 12.226L25.5246 14.0671L25.5248 10.8105Z" fill="#C1CCF5"/>
<path fill-rule="evenodd" clip-rule="evenodd" d="M22.4102 12.8164L25.5246 17.2053V14.6565L22.4102 12.8164Z" fill="white"/>
<path fill-rule="evenodd" clip-rule="evenodd" d="M25.5249 14.6565V17.2055L28.6414 12.8164L25.5249 14.6565Z" fill="#C1CCF5"/>
<path fill-rule="evenodd" clip-rule="evenodd" d="M14.9431 18.8861C18.7776 18.8861 21.8861 15.7776 21.8861 11.9431C21.8861 8.10852 18.7776 5 14.9431 5C11.1085 5 8 8.10852 8 11.9431C8 15.7776 11.1085 18.8861 14.9431 18.8861Z" fill="#F7931A"/>
<path fill-rule="evenodd" clip-rule="evenodd" d="M18.1453 11.1167C18.2839 10.1925 17.5774 9.69591 16.6116 9.36425L16.9249 8.11186L16.16 7.92172L15.855 9.14112C15.654 9.0912 15.4475 9.04388 15.2417 8.99743L15.549 7.77022L14.7846 7.58008L14.4708 8.83204L12.9279 8.45133L12.7244 9.26527C12.7244 9.26527 13.2918 9.39464 13.2801 9.40288C13.5899 9.48016 13.6462 9.68418 13.6366 9.84611L12.778 13.276C12.7401 13.3693 12.6437 13.51 12.4271 13.4566C12.435 13.4674 11.871 13.3185 11.871 13.3185L11.491 14.1911L13.0316 14.5783L12.7152 15.8446L13.4792 16.0347L13.793 14.7819C14.0018 14.8379 14.2045 14.8904 14.4028 14.9395L14.0903 16.1862L14.8552 16.3763L15.172 15.1127C16.4769 15.3584 17.458 15.2594 17.8707 14.0838C18.0881 13.267 17.8541 12.5914 17.1677 12.2354C17.668 12.1208 18.0446 11.7935 18.1453 11.1167ZM16.6332 11.1033C16.4356 11.8915 15.3018 11.5909 14.7807 11.4527C14.733 11.4401 14.6903 11.4288 14.6541 11.4198L15.035 9.89783C15.0789 9.90878 15.1328 9.9207 15.1939 9.93421L15.194 9.93421C15.7333 10.0535 16.8348 10.297 16.6332 11.1033ZM16.3974 13.5586C16.1802 14.427 14.8154 14.0675 14.1913 13.9031L14.1913 13.9031C14.1353 13.8884 14.0853 13.8752 14.0426 13.8646L14.4627 12.1873C14.5149 12.2002 14.5786 12.2144 14.6507 12.2306C15.2964 12.3749 16.6197 12.6706 16.3974 13.5586Z" fill="white"/>
<path d="M55.8894 10.3471H53.8005C53.8118 10.1314 53.7907 9.93927 53.7371 9.77059C53.6835 9.59915 53.599 9.45259 53.4834 9.33092C53.3678 9.20649 53.224 9.11247 53.0521 9.04887C52.8801 8.98527 52.68 8.95347 52.4516 8.95347C52.0147 8.95347 51.6186 9.05993 51.2634 9.27285C50.9082 9.48577 50.6108 9.79271 50.3712 10.1937C50.1316 10.5946 49.9639 11.0758 49.868 11.6371C49.7806 12.1791 49.782 12.6312 49.8722 12.9934C49.9653 13.3557 50.1372 13.6281 50.3881 13.8106C50.639 13.9903 50.9576 14.0802 51.3438 14.0802C51.5947 14.0802 51.8272 14.0511 52.0415 13.9931C52.2585 13.9322 52.4545 13.8451 52.6292 13.7318C52.804 13.6184 52.9548 13.4815 53.0817 13.3211C53.2114 13.158 53.3114 12.9768 53.3819 12.7778H55.4877C55.3834 13.1511 55.2114 13.523 54.9718 13.8935C54.735 14.2613 54.4362 14.5945 54.0754 14.8931C53.7146 15.1918 53.2959 15.431 52.8195 15.6107C52.3431 15.7904 51.8131 15.8803 51.2296 15.8803C50.4318 15.8803 49.744 15.7047 49.1661 15.3535C48.591 15.0024 48.1752 14.4936 47.9187 13.8272C47.665 13.158 47.617 12.3478 47.7749 11.3965C47.93 10.4757 48.2358 9.70008 48.6925 9.06961C49.152 8.43914 49.7102 7.96214 50.367 7.63861C51.0266 7.31508 51.73 7.15332 52.477 7.15332C53.0183 7.15332 53.5045 7.22522 53.9358 7.36901C54.37 7.51003 54.7378 7.71742 55.0395 7.99118C55.3411 8.26217 55.5652 8.59538 55.7118 8.9908C55.8612 9.38623 55.9204 9.83834 55.8894 10.3471Z" fill="white"/>
<path d="M56.178 15.7642L57.2605 9.39314H59.269L59.0703 10.5545H59.138C59.3268 10.1342 59.5735 9.82175 59.878 9.61712C60.1824 9.40973 60.5122 9.30604 60.8674 9.30604C60.9633 9.30604 61.0591 9.31295 61.155 9.32677C61.2536 9.33783 61.3467 9.35443 61.434 9.37655L61.1296 11.1435C61.0337 11.1076 60.9083 11.0813 60.7533 11.0647C60.5982 11.0454 60.4573 11.0357 60.3304 11.0357C60.0851 11.0357 59.8568 11.0896 59.6454 11.1974C59.4368 11.3025 59.2592 11.4505 59.1126 11.6413C58.9688 11.8293 58.8744 12.0505 58.8293 12.3049L58.2457 15.7642H56.178Z" fill="white"/>
<path d="M62.2544 18.1533C62.0063 18.1533 61.7751 18.134 61.5609 18.0953C61.3495 18.0593 61.1691 18.0109 61.0196 17.9501L61.73 16.4776C61.9189 16.544 62.0923 16.5813 62.2501 16.5896C62.4108 16.6007 62.5546 16.5744 62.6815 16.5108C62.8111 16.45 62.9239 16.3407 63.0197 16.1831L63.1381 15.9882L61.9499 9.39314H64.0388L64.4617 13.9433H64.5293L66.5167 9.39314H68.7705L65.1467 16.3739C64.9634 16.7223 64.7421 17.0306 64.4828 17.2989C64.2234 17.5671 63.9105 17.7759 63.5441 17.9252C63.1804 18.0773 62.7505 18.1533 62.2544 18.1533Z" fill="white"/>
<path d="M68.0876 18.1533L69.5845 9.39314H71.6311L71.4493 10.484H71.5127C71.6254 10.2904 71.7749 10.1038 71.9609 9.92406C72.1498 9.74432 72.3767 9.59776 72.6417 9.48439C72.9067 9.36825 73.2097 9.31018 73.5508 9.31018C74.0019 9.31018 74.4036 9.42632 74.756 9.6586C75.1083 9.89088 75.3649 10.249 75.5255 10.7329C75.6862 11.2168 75.7031 11.8334 75.5763 12.5828C75.4551 13.3045 75.2352 13.9087 74.9166 14.3954C74.6009 14.8821 74.226 15.2471 73.7919 15.4904C73.3577 15.7338 72.9025 15.8554 72.426 15.8554C72.099 15.8554 71.8228 15.8029 71.5973 15.6978C71.3746 15.5927 71.1984 15.4545 71.0687 15.283C70.939 15.1116 70.8488 14.9277 70.7981 14.7314H70.7389L70.1638 18.1533H68.0876ZM71.0687 12.5787C71.0123 12.9215 71.0095 13.2202 71.0602 13.4746C71.111 13.729 71.2139 13.9267 71.3689 14.0677C71.5268 14.206 71.7312 14.2751 71.982 14.2751C72.2358 14.2751 72.4613 14.206 72.6586 14.0677C72.8588 13.9267 73.0265 13.729 73.1618 13.4746C73.2971 13.2202 73.3958 12.9215 73.4578 12.5787C73.5114 12.2358 73.5128 11.9385 73.462 11.6869C73.4141 11.4352 73.314 11.2403 73.1618 11.102C73.0096 10.9638 72.8052 10.8946 72.5487 10.8946C72.2978 10.8946 72.0694 10.9624 71.8637 11.0979C71.6607 11.2334 71.4915 11.427 71.3562 11.6786C71.2209 11.9302 71.1251 12.2302 71.0687 12.5787Z" fill="white"/>
<path d="M80.8693 9.39314L80.6114 10.8864H76.514L76.7719 9.39314H80.8693ZM77.884 7.86674H79.9517L78.9538 13.7608C78.9341 13.8852 78.9369 13.9862 78.9623 14.0636C78.9904 14.1382 79.0412 14.1922 79.1145 14.2253C79.1906 14.2558 79.2836 14.271 79.3936 14.271C79.4697 14.271 79.5542 14.2627 79.6473 14.2461C79.7403 14.2295 79.8108 14.217 79.8587 14.2088L79.9264 15.6729C79.8164 15.7033 79.6684 15.7379 79.4824 15.7766C79.2991 15.8181 79.0849 15.8444 78.8396 15.8554C78.3435 15.8748 77.9333 15.8181 77.6091 15.6854C77.2878 15.5499 77.0608 15.3397 76.9283 15.0549C76.7987 14.7701 76.7733 14.4134 76.8522 13.9848L77.884 7.86674Z" fill="white"/>
<path d="M83.7997 15.8845C83.1147 15.8845 82.5494 15.7462 82.104 15.4697C81.6615 15.1932 81.35 14.8074 81.1695 14.3124C80.9891 13.8175 80.9539 13.2423 81.0638 12.587C81.1738 11.9344 81.4007 11.362 81.7446 10.8698C82.0885 10.3776 82.5283 9.99457 83.0639 9.72082C83.5995 9.44706 84.207 9.31018 84.8864 9.31018C85.5686 9.31018 86.131 9.44844 86.5736 9.72496C87.019 10.0015 87.3319 10.3872 87.5123 10.8822C87.6955 11.3772 87.7322 11.9537 87.6222 12.6118C87.5123 13.2644 87.284 13.8368 86.9372 14.329C86.5905 14.8185 86.1507 15.2001 85.6179 15.4738C85.0851 15.7476 84.4791 15.8845 83.7997 15.8845ZM84.0322 14.3539C84.2859 14.3539 84.5129 14.2793 84.713 14.1299C84.916 13.9806 85.0865 13.7718 85.2247 13.5036C85.3628 13.2354 85.4615 12.9243 85.5207 12.5704C85.5799 12.2219 85.5855 11.9164 85.5376 11.6537C85.4925 11.3882 85.3966 11.1822 85.25 11.0357C85.1035 10.8864 84.9047 10.8117 84.6538 10.8117C84.4001 10.8117 84.1718 10.8877 83.9688 11.0398C83.7658 11.1891 83.5953 11.3979 83.4572 11.6661C83.3218 11.9316 83.2246 12.2427 83.1654 12.5994C83.1062 12.9478 83.0991 13.2534 83.1442 13.5161C83.1894 13.7788 83.2866 13.9848 83.436 14.1341C83.5854 14.2806 83.7842 14.3539 84.0322 14.3539Z" fill="white"/>
<defs>
<clipPath id="clip0_4503_32665">
<rect width="14" height="14" fill="white" transform="translate(29 5)"/>
</clipPath>
</defs>
</svg>
